<?xml version="1.0" encoding="utf-8"?>
<!-- Generator: Adobe Illustrator 21.1.0, SVG Export Plug-In . SVG Version: 6.00 Build 0)  -->
<svg version="1.1" id="Warstwa_1" xmlns="http://www.w3.org/2000/svg" xmlns:xlink="http://www.w3.org/1999/xlink" x="0px" y="0px"
	 viewBox="0 0 32 32" style="enable-background:new 0 0 32 32;" xml:space="preserve">
<style type="text/css">
	.st1{fill:#D6A627;}
</style>
<title>Zasób 87</title>
<g id="Warstwa_2">
	<g id="Warstwa_6">
		<rect fill="none" width="32" height="32"/>
		<g id="Warstwa_1-2">
			<path class="st1" d="M4.6,7.7L5,9.1c0.3-0.2,0.7-0.4,1-0.6c0.7-0.5,1.4-1,2.1-1s1.5,0.5,2.2,1c0.6,0.4,1.3,0.9,1.8,0.9
				c0.6,0,1.2-0.4,1.9-0.9s1.4-1,2.2-1c0.8,0,1.5,0.5,2.2,1c0.6,0.4,1.3,0.9,1.8,0.9c0.6,0,1.2-0.4,1.8-0.9c0.7-0.5,1.4-1,2.2-1
				c0.7,0,1.4,0.5,2.1,1c0.3,0.2,0.7,0.4,1,0.6l0.4-1.5L29,8l-4.7,16.5H8.1L3.3,8.3L4.6,7.7L4.6,7.7z M18.8,13L18.8,13
				c-0.3,0-0.6,0.3-0.6,0.6l0,0l0,0c0,0.3,0.3,0.6,0.6,0.6l0,0c0.3,0,0.6-0.3,0.6-0.6l0,0l0,0l0,0C19.4,13.3,19.2,13,18.8,13z
				 M9.7,16.5v-1h0.5c0.3,0,0.6-0.1,0.8-0.3s0.3-0.5,0.3-0.7c0-0.3-0.1-0.5-0.3-0.7s-0.4-0.3-0.7-0.2c-0.6,0-1.1,0.4-1.2,1l-1-0.2
				c0.1-0.5,0.4-0.9,0.7-1.3c0.4-0.3,0.9-0.5,1.4-0.5s1,0.2,1.4,0.5s0.6,0.8,0.6,1.3c0,0.4-0.1,0.7-0.3,1.1
				c-0.2,0.3-0.5,0.4-0.8,0.5c0.4,0.1,0.7,0.3,0.9,0.5c0.2,0.3,0.4,0.7,0.3,1.1c0,0.5-0.2,1.1-0.6,1.4c-0.5,0.4-1,0.6-1.6,0.5
				c-0.6,0-1.1-0.2-1.5-0.5S8,18.2,7.8,17.7l1-0.3c0.2,0.8,0.6,1.1,1.3,1.1c0.3,0,0.6-0.1,0.8-0.3c0.2-0.2,0.3-0.4,0.3-0.7
				c0-0.3-0.1-0.6-0.3-0.8c-0.2-0.2-0.5-0.4-0.8-0.3L9.7,16.5z M15.5,19.6c-0.7,0-1.3-0.3-1.7-1s-0.6-1.6-0.6-2.4
				c0-0.9,0.2-1.8,0.6-2.6c0.3-0.6,1-1,1.6-1c0.5,0,0.9,0.2,1.3,0.5s0.6,0.8,0.8,1.3c0.2,0.5,0.2,1,0.2,1.5c0,0.7-0.1,1.3-0.2,2
				c-0.1,0.5-0.4,0.9-0.7,1.2C16.4,19.4,16,19.6,15.5,19.6L15.5,19.6z M15.5,18.6c0.3,0,0.5-0.1,0.7-0.3c0.2-0.3,0.3-0.6,0.4-0.9
				c0.1-0.5,0.1-1,0.1-1.6c0-0.5-0.1-1.1-0.2-1.6c-0.1-0.4-0.5-0.7-0.9-0.7c-0.8,0-1.2,0.8-1.2,2.5c0,0.6,0.1,1.3,0.3,1.9
				C14.7,18.4,15.1,18.6,15.5,18.6L15.5,18.6z M23.4,17.2l1,0.1c0,0.6-0.3,1.2-0.7,1.7c-0.4,0.4-0.9,0.7-1.5,0.6
				c-0.5,0-0.9-0.2-1.3-0.5s-0.6-0.8-0.8-1.3c-0.2-0.6-0.3-1.2-0.3-1.8c0-0.9,0.2-1.8,0.6-2.5c0.4-0.6,1-1,1.7-1
				c0.5,0,1.1,0.2,1.4,0.6c0.4,0.5,0.7,1.1,0.7,1.8l-1,0.1c-0.2-1-0.6-1.5-1.2-1.5c-0.4,0-0.8,0.3-0.9,0.6c-0.2,0.6-0.4,1.2-0.3,1.8
				c0,0.6,0.1,1.3,0.3,1.9c0.2,0.4,0.5,0.6,0.9,0.6c0.3,0,0.6-0.2,0.8-0.4C23.2,17.9,23.4,17.5,23.4,17.2L23.4,17.2z M18.8,12.5
				L18.8,12.5c0.6,0,1.1,0.5,1.1,1.1l0,0l0,0l0,0c0,0.6-0.5,1.1-1.1,1.1l0,0c-0.6,0-1.1-0.5-1.1-1.1l0,0l0,0l0,0
				C17.8,13,18.2,12.5,18.8,12.5L18.8,12.5z M5.3,10l3.8,13h14.3l3.7-13c-0.4-0.2-0.7-0.4-1.1-0.7c-0.6-0.4-1.2-0.9-1.8-0.9
				c-0.6,0-1.2,0.4-1.8,0.9c-0.7,0.5-1.4,1-2.2,1c-0.7,0-1.5-0.5-2.2-1c-0.6-0.4-1.3-0.9-1.8-0.9c-0.6,0-1.2,0.4-1.9,0.9
				s-1.4,1-2.2,1s-1.5-0.5-2.2-1C9.3,8.9,8.7,8.5,8.1,8.5S6.9,8.9,6.3,9.4C6,9.6,5.6,9.8,5.3,10z"/>
		</g>
	</g>
</g>
</svg>
